<svg id="SvgjsSvg1001" width="288" height="288" xmlns="http://www.w3.org/2000/svg" version="1.1" xmlns:xlink="http://www.w3.org/1999/xlink" xmlns:svgjs="http://svgjs.com/svgjs"><defs id="SvgjsDefs1002"></defs><g id="SvgjsG1008"><svg xmlns="http://www.w3.org/2000/svg" viewBox="195 56.01 193.74 311.74" width="288" height="288"><path d="M248 62.8c-6.3 2.8-41.3 23.9-43.6 26.3l-2.9 3-.3 118.7c-.2 113.4-.1 118.9 1.6 122.1 1.5 2.8 5.7 5.7 22.3 15.3 20.9 12.1 24.9 13.9 29.1 13.1 4.3-.8 83.9-47.6 86.2-50.6 2-2.7 2.1-4.3 2.4-25 .4-25.6 0-29.6-3.4-33.6-1.3-1.6-11.8-8.4-23.3-15-22.5-13-25.4-14-30.4-10.1-1.5 1.2-3.1 3.8-3.7 5.8-1.2 4.6-1.3 45.2 0 50.7 1.9 8.4 11.2 11.5 17.1 5.6l2.9-2.9v-16.1c0-8.9.3-16.1.7-16.1.8 0 13.1 6.8 16.6 9.2l2.7 2-.2 16.9-.3 17-34.9 20.1c-34.1 19.7-34.9 20.1-37.5 18.6-1.4-.8-8.1-4.8-14.9-8.7l-12.2-7.2.2-110.1.3-110 17-10c19.1-11.1 22.5-14 22.5-19.4 0-6.8-8-12.2-14-9.6z" fill="#f8f8f8" class="color000 svgShape"></path><path d="M329 63c-2.6.7-77.1 43.5-82.4 47.3-5.8 4.1-5.6.3-5.6 102 0 64 .3 94.4 1.1 96.5 1.4 4 4.9 6.2 9.9 6.2 3.3 0 4.8-.6 7.1-2.9l2.9-2.9V125.3l35.1-20.3c34.5-20 35.1-20.3 37.7-18.8 1.5.8 8.2 4.8 15 8.7l12.2 7.2V182.8l-17.2 9.8c-9.5 5.4-18.5 11.1-20 12.6-6.3 6-1.8 16.8 7 16.8 3.3 0 7.8-2.2 25.3-12.3 12-6.9 22.2-13.6 23.4-15.1 1.9-2.7 2-4.2 2.3-49.4.2-25.7 0-48.1-.3-49.9-.3-1.8-1.7-4.5-3-6.1-2.6-3.1-41.4-25.7-45.5-26.5-1.4-.3-3.6-.1-5 .3z" fill="#f8f8f8" class="color000 svgShape"></path><path d="M307 121.5c-11.8 6.8-22.3 13.4-23.2 14.6-2.8 3.3-2.4 10.1.7 13.1 2.7 2.7 7.4 4.1 10.2 3.1 1-.4 7.1-3.7 13.6-7.5 6.5-3.7 12.2-6.8 12.7-6.8.6 0 1 4.5 1 10.4 0 12.3 2.1 9.9-20.4 22.7-8.1 4.6-15.9 9.5-17.2 10.8-5.8 5.8-1.1 17.1 7.1 17.1 5.2 0 46.3-23.8 49.1-28.4 1.7-2.8 1.9-5.3 1.9-29.3v-26.2l-2.9-3c-5.4-5.6-8-4.8-32.6 9.4zm59.9 105c-1.5.8-3.1 2.2-3.5 3.2-.5 1-1.1 22.2-1.4 47.2l-.5 45.3-18.3 10.7c-10 5.9-18.9 11.6-19.7 12.7-1.8 2.3-1.9 7.4-.3 10.9 1.3 3 5.5 5.5 9.1 5.5 3 0 43.1-22.9 47.1-27l3.1-3V230.8l-3.3-2.9c-3.6-3.3-8-3.7-12.3-1.4z" fill="#f8f8f8" class="color000 svgShape"></path></svg></g></svg>