<svg xmlns="http://www.w3.org/2000/svg" viewBox="-0.00155834 -0.0026796 24 24">
  <path d="M 11.983 0 a 12.206 12.206 0 0 0 -8.51 3.653 A 11.8 11.8 0 0 0 0 12.207 A 11.779 11.779 0 0 0 11.8 24 h 0.214 A 12.111 12.111 0 0 0 24 11.791 A 11.766 11.766 0 0 0 11.983 0 Z M 10.5 16.542 a 1.476 1.476 0 0 1 1.449 -1.53 h 0.027 a 1.527 1.527 0 0 1 1.523 1.47 a 1.475 1.475 0 0 1 -1.449 1.53 h -0.027 a 1.529 1.529 0 0 1 -1.523 -1.47 Z M 11 12.5 v -6 a 1 1 0 0 1 2 0 v 6 a 1 1 0 1 1 -2 0 Z" fill="#d77a61"/>
</svg>