<svg id="SvgjsSvg1001" width="288" height="288" xmlns="http://www.w3.org/2000/svg" version="1.1" xmlns:xlink="http://www.w3.org/1999/xlink" xmlns:svgjs="http://svgjs.com/svgjs"><defs id="SvgjsDefs1002"></defs><g id="SvgjsG1008" transform="matrix(1,0,0,1,0,0)"><svg xmlns="http://www.w3.org/2000/svg" width="288" height="288" viewBox="0 0 400 400"><path fill="#9ba3cb" fill-rule="evenodd" d="M321.960 96.195 C 205.467 213.000,170.200 248.488,170.200 248.908 C 170.200 249.139,174.840 250.894,180.511 252.808 C 186.182 254.722,190.937 256.403,191.077 256.544 C 191.218 256.685,191.743 256.800,192.243 256.800 C 192.743 256.800,193.264 256.980,193.400 257.200 C 193.536 257.420,194.076 257.600,194.600 257.600 C 195.124 257.600,195.664 257.780,195.800 258.000 C 195.936 258.220,196.476 258.400,197.000 258.400 C 197.524 258.400,198.064 258.580,198.200 258.800 C 198.336 259.020,198.799 259.200,199.229 259.200 C 199.659 259.200,200.323 259.376,200.705 259.591 C 201.327 259.940,218.866 265.899,233.200 270.631 C 236.170 271.611,238.913 272.590,239.295 272.807 C 239.677 273.023,240.341 273.200,240.771 273.200 C 241.201 273.200,241.664 273.380,241.800 273.600 C 241.936 273.820,242.476 274.000,243.000 274.000 C 243.524 274.000,244.064 274.180,244.200 274.400 C 244.336 274.620,244.876 274.800,245.400 274.800 C 245.924 274.800,246.464 274.980,246.600 275.200 C 246.736 275.420,247.199 275.600,247.629 275.600 C 248.059 275.600,248.723 275.777,249.105 275.994 C 249.487 276.210,252.770 277.370,256.400 278.570 C 271.694 283.628,287.048 288.848,287.695 289.211 C 288.077 289.425,288.741 289.600,289.171 289.600 C 289.601 289.600,290.064 289.780,290.200 290.000 C 290.336 290.220,290.876 290.400,291.400 290.400 C 291.924 290.400,292.464 290.580,292.600 290.800 C 292.736 291.020,293.276 291.200,293.800 291.200 C 294.324 291.200,294.864 291.380,295.000 291.600 C 295.136 291.820,295.599 292.000,296.029 292.000 C 296.459 292.000,297.123 292.177,297.505 292.394 C 297.887 292.610,301.170 293.770,304.800 294.970 C 320.094 300.028,335.448 305.248,336.095 305.611 C 336.477 305.825,337.141 306.000,337.571 306.000 C 338.001 306.000,338.464 306.180,338.600 306.400 C 338.736 306.620,339.276 306.800,339.800 306.800 C 340.324 306.800,340.864 306.980,341.000 307.200 C 341.904 308.663,342.000 304.901,342.000 267.878 L 342.000 228.157 343.169 226.313 C 346.490 221.077,353.510 221.077,356.831 226.313 L 358.000 228.157 358.000 270.632 L 358.000 313.107 358.900 313.309 C 359.395 313.420,365.173 315.342,371.741 317.581 C 378.308 319.820,383.753 321.580,383.841 321.492 C 383.929 321.404,383.956 256.725,383.901 177.761 L 383.800 34.190 321.960 96.195 M354.087 193.169 C 359.323 196.490,359.323 203.510,354.087 206.831 C 350.314 209.224,345.391 207.916,343.035 203.896 C 339.992 198.703,343.916 192.000,350.000 192.000 C 351.792 192.000,352.614 192.235,354.087 193.169 " class="colorfbc36b svgShape"></path><path fill="#707cb6" fill-rule="evenodd" d="M348.200 39.348 C 340.720 43.146,328.300 49.466,320.600 53.393 C 312.900 57.320,300.300 63.698,292.600 67.567 C 284.900 71.435,278.540 74.735,278.467 74.900 C 278.393 75.065,277.988 75.200,277.567 75.200 C 277.145 75.200,276.800 75.380,276.800 75.600 C 276.800 75.820,276.455 76.000,276.033 76.000 C 275.612 76.000,275.207 76.135,275.133 76.300 C 275.060 76.465,271.850 78.192,268.000 80.139 C 249.067 89.711,224.189 102.325,213.600 107.723 C 207.110 111.031,196.220 116.539,189.400 119.962 C 182.580 123.384,176.940 126.323,176.867 126.493 C 176.793 126.662,176.388 126.800,175.967 126.800 C 175.545 126.800,175.200 126.980,175.200 127.200 C 175.200 127.420,174.855 127.600,174.433 127.600 C 174.012 127.600,173.607 127.741,173.533 127.913 C 173.460 128.085,168.000 130.918,161.400 134.209 C 154.800 137.500,149.340 140.329,149.267 140.496 C 149.193 140.663,148.803 140.800,148.400 140.800 C 147.997 140.800,147.607 140.935,147.533 141.100 C 147.460 141.265,142.990 143.624,137.600 146.342 C 132.210 149.060,120.780 154.847,112.200 159.203 C 103.620 163.558,91.200 169.863,84.600 173.212 C 78.000 176.562,66.660 182.288,59.400 185.936 C 52.140 189.585,46.110 192.669,46.000 192.791 C 45.890 192.913,42.220 194.810,37.844 197.007 C 29.294 201.298,29.088 201.488,32.013 202.404 C 33.073 202.736,34.074 203.141,34.237 203.304 C 34.400 203.467,34.943 203.600,35.443 203.600 C 35.943 203.600,36.464 203.780,36.600 204.000 C 36.736 204.220,37.276 204.400,37.800 204.400 C 38.324 204.400,38.864 204.580,39.000 204.800 C 39.136 205.020,39.676 205.200,40.200 205.200 C 40.724 205.200,41.264 205.380,41.400 205.600 C 41.536 205.820,42.076 206.000,42.600 206.000 C 43.124 206.000,43.642 206.144,43.751 206.321 C 43.860 206.497,44.872 206.893,46.000 207.200 C 47.128 207.507,48.140 207.903,48.249 208.079 C 48.358 208.256,48.876 208.400,49.400 208.400 C 49.924 208.400,50.464 208.580,50.600 208.800 C 50.736 209.020,51.276 209.200,51.800 209.200 C 52.324 209.200,52.864 209.380,53.000 209.600 C 53.136 209.820,53.676 210.000,54.200 210.000 C 54.724 210.000,55.264 210.180,55.400 210.400 C 55.536 210.620,55.999 210.800,56.429 210.800 C 56.859 210.800,57.523 210.976,57.905 211.192 C 58.287 211.407,63.820 213.300,70.200 215.398 C 76.580 217.496,82.113 219.390,82.495 219.606 C 82.877 219.823,83.541 220.000,83.971 220.000 C 84.401 220.000,84.864 220.180,85.000 220.400 C 85.136 220.620,85.676 220.800,86.200 220.800 C 86.724 220.800,87.264 220.980,87.400 221.200 C 87.536 221.420,88.051 221.600,88.544 221.600 C 89.037 221.600,89.611 221.748,89.820 221.928 C 90.029 222.108,91.550 222.681,93.200 223.200 C 94.850 223.719,96.371 224.292,96.580 224.472 C 96.789 224.652,97.363 224.800,97.856 224.800 C 98.349 224.800,98.864 224.980,99.000 225.200 C 99.136 225.420,99.676 225.600,100.200 225.600 C 100.724 225.600,101.264 225.780,101.400 226.000 C 101.536 226.220,102.076 226.400,102.600 226.400 C 103.124 226.400,103.664 226.580,103.800 226.800 C 103.936 227.020,104.399 227.200,104.829 227.200 C 105.259 227.200,105.923 227.377,106.305 227.594 C 106.687 227.810,112.220 229.704,118.600 231.802 C 124.980 233.900,130.513 235.793,130.895 236.008 C 131.277 236.224,131.941 236.400,132.371 236.400 C 132.801 236.400,133.264 236.580,133.400 236.800 C 133.536 237.020,134.076 237.200,134.600 237.200 C 135.124 237.200,135.664 237.380,135.800 237.600 C 135.936 237.820,136.451 238.000,136.944 238.000 C 137.437 238.000,138.011 238.148,138.220 238.328 C 138.429 238.508,139.950 239.081,141.600 239.600 C 143.250 240.119,144.771 240.692,144.980 240.872 C 145.189 241.052,145.763 241.200,146.256 241.200 C 146.749 241.200,147.264 241.380,147.400 241.600 C 147.536 241.820,148.076 242.000,148.600 242.000 C 149.124 242.000,149.664 242.180,149.800 242.400 C 151.075 244.463,147.318 248.098,239.800 155.331 C 348.302 46.495,362.331 32.384,361.993 32.422 C 361.887 32.434,355.680 35.550,348.200 39.348 M350.388 67.500 L 347.800 70.200 350.500 67.612 C 353.008 65.207,353.383 64.800,353.088 64.800 C 353.027 64.800,351.812 66.015,350.388 67.500 M231.197 187.100 L 221.800 196.600 231.300 187.203 C 240.128 178.471,240.980 177.600,240.697 177.600 C 240.640 177.600,236.365 181.875,231.197 187.100 " class="colorfba32b svgShape"></path><path fill="#030305" fill-rule="evenodd" d="M387.400 0.276 C 386.960 0.395,386.510 0.608,386.400 0.749 C 386.290 0.890,385.030 1.612,383.600 2.354 C 382.170 3.096,379.920 4.265,378.600 4.952 C 377.280 5.638,376.140 6.335,376.067 6.500 C 375.993 6.665,375.678 6.800,375.367 6.800 C 375.055 6.800,374.800 6.980,374.800 7.200 C 374.800 7.420,374.440 7.600,374.000 7.600 C 373.560 7.600,373.200 7.780,373.200 8.000 C 373.200 8.220,372.885 8.401,372.500 8.402 C 372.115 8.404,371.284 8.674,370.654 9.002 C 370.024 9.331,369.259 9.600,368.954 9.600 C 368.649 9.600,368.400 9.780,368.400 10.000 C 368.400 10.220,368.040 10.400,367.600 10.400 C 367.160 10.400,366.800 10.580,366.800 10.800 C 366.800 11.020,366.440 11.200,366.000 11.200 C 365.560 11.200,365.200 11.380,365.200 11.600 C 365.200 11.820,364.840 12.000,364.400 12.000 C 363.960 12.000,363.600 12.180,363.600 12.400 C 363.600 12.620,363.240 12.800,362.800 12.800 C 362.360 12.800,361.999 12.935,361.999 13.100 C 361.998 13.265,361.008 13.850,359.800 14.400 C 358.592 14.950,357.602 15.535,357.601 15.700 C 357.601 15.865,357.240 16.000,356.800 16.000 C 356.360 16.000,356.000 16.180,356.000 16.400 C 356.000 16.620,355.640 16.800,355.200 16.800 C 354.760 16.800,354.400 16.980,354.400 17.200 C 354.400 17.420,354.040 17.600,353.600 17.600 C 353.160 17.600,352.800 17.780,352.800 18.000 C 352.800 18.220,352.440 18.400,352.000 18.400 C 351.560 18.400,351.200 18.580,351.200 18.800 C 351.200 19.020,350.840 19.200,350.400 19.200 C 349.960 19.200,349.600 19.380,349.600 19.600 C 349.600 19.820,349.240 20.000,348.800 20.000 C 348.360 20.000,348.000 20.180,348.000 20.400 C 348.000 20.620,347.640 20.800,347.200 20.800 C 346.760 20.800,346.400 20.980,346.400 21.200 C 346.400 21.420,346.040 21.600,345.600 21.600 C 345.160 21.600,344.800 21.746,344.800 21.925 C 344.800 22.104,344.170 22.498,343.400 22.800 C 342.630 23.102,342.000 23.496,342.000 23.675 C 342.000 23.854,341.640 24.000,341.200 24.000 C 340.760 24.000,340.400 24.180,340.400 24.400 C 340.400 24.620,340.113 24.800,339.762 24.800 C 339.030 24.800,328.669 30.020,328.467 30.490 C 328.393 30.660,327.988 30.800,327.567 30.800 C 327.145 30.800,326.800 30.946,326.800 31.125 C 326.800 31.304,326.170 31.698,325.400 32.000 C 324.630 32.302,324.000 32.696,324.000 32.875 C 324.000 33.054,323.640 33.200,323.200 33.200 C 322.760 33.200,322.400 33.380,322.400 33.600 C 322.400 33.820,322.040 34.000,321.600 34.000 C 321.160 34.000,320.800 34.180,320.800 34.400 C 320.800 34.620,320.440 34.800,320.000 34.800 C 319.560 34.800,319.200 34.980,319.200 35.200 C 319.200 35.420,318.840 35.600,318.400 35.600 C 317.960 35.600,317.600 35.780,317.600 36.000 C 317.600 36.220,317.240 36.400,316.800 36.400 C 316.360 36.400,316.000 36.580,316.000 36.800 C 316.000 37.020,315.640 37.200,315.200 37.200 C 314.760 37.200,314.400 37.380,314.400 37.600 C 314.400 37.820,314.040 38.000,313.600 38.000 C 313.160 38.000,312.800 38.180,312.800 38.400 C 312.800 38.620,312.440 38.800,312.000 38.800 C 311.560 38.800,311.200 38.980,311.200 39.200 C 311.200 39.420,310.840 39.600,310.400 39.600 C 309.960 39.600,309.600 39.780,309.600 40.000 C 309.600 40.220,309.330 40.400,309.000 40.400 C 308.670 40.400,308.400 40.580,308.400 40.800 C 308.400 41.020,308.128 41.200,307.795 41.200 C 307.462 41.200,306.877 41.365,306.495 41.567 C 306.113 41.769,302.920 43.339,299.400 45.055 C 295.880 46.771,292.940 48.316,292.867 48.488 C 292.793 48.659,292.388 48.800,291.967 48.800 C 291.545 48.800,291.200 48.980,291.200 49.200 C 291.200 49.420,290.840 49.600,290.400 49.600 C 289.960 49.600,289.600 49.780,289.600 50.000 C 289.600 50.220,289.240 50.400,288.800 50.400 C 288.360 50.400,288.000 50.580,288.000 50.800 C 288.000 51.020,287.640 51.200,287.200 51.200 C 286.760 51.200,286.400 51.380,286.400 51.600 C 286.400 51.820,286.040 52.000,285.600 52.000 C 285.160 52.000,284.799 52.135,284.799 52.300 C 284.798 52.465,283.808 53.050,282.600 53.600 C 281.392 54.150,280.402 54.735,280.401 54.900 C 280.401 55.065,280.055 55.200,279.633 55.200 C 279.212 55.200,278.807 55.335,278.733 55.500 C 278.660 55.665,277.745 56.233,276.700 56.763 C 275.655 57.292,274.800 57.862,274.800 58.028 C 274.800 58.194,274.080 58.451,273.200 58.600 C 272.320 58.749,271.600 59.034,271.600 59.235 C 271.600 59.436,271.240 59.600,270.800 59.600 C 270.360 59.600,270.000 59.780,270.000 60.000 C 270.000 60.220,269.640 60.400,269.200 60.400 C 268.760 60.400,268.400 60.580,268.400 60.800 C 268.400 61.020,268.040 61.200,267.600 61.200 C 267.160 61.200,266.800 61.380,266.800 61.600 C 266.800 61.820,266.440 62.000,266.000 62.000 C 265.560 62.000,265.200 62.180,265.200 62.400 C 265.200 62.620,264.840 62.800,264.400 62.800 C 263.960 62.800,263.600 62.980,263.600 63.200 C 263.600 63.420,263.240 63.600,262.800 63.600 C 262.360 63.600,262.000 63.780,262.000 64.000 C 262.000 64.220,261.640 64.400,261.200 64.400 C 260.760 64.400,260.400 64.546,260.400 64.725 C 260.400 64.904,259.770 65.298,259.000 65.600 C 258.230 65.902,257.600 66.296,257.600 66.475 C 257.600 66.654,257.240 66.800,256.800 66.800 C 256.360 66.800,256.000 66.980,256.000 67.200 C 256.000 67.420,255.640 67.600,255.200 67.600 C 254.760 67.600,254.400 67.780,254.400 68.000 C 254.400 68.220,254.040 68.400,253.600 68.400 C 253.160 68.400,252.800 68.580,252.800 68.800 C 252.800 69.020,252.440 69.200,252.000 69.200 C 251.560 69.200,251.200 69.380,251.200 69.600 C 251.200 69.820,250.840 70.000,250.400 70.000 C 249.960 70.000,249.600 70.180,249.600 70.400 C 249.600 70.620,249.240 70.800,248.800 70.800 C 248.360 70.800,248.000 70.980,248.000 71.200 C 248.000 71.420,247.640 71.600,247.200 71.600 C 246.760 71.600,246.400 71.780,246.400 72.000 C 246.400 72.220,246.040 72.400,245.600 72.400 C 245.160 72.400,244.800 72.546,244.800 72.725 C 244.800 72.904,244.170 73.298,243.400 73.600 C 242.630 73.902,242.000 74.296,242.000 74.475 C 242.000 74.654,241.713 74.800,241.362 74.800 C 240.754 74.800,227.216 81.512,226.800 82.020 C 226.690 82.154,226.015 82.519,225.300 82.830 C 224.585 83.141,224.000 83.531,224.000 83.698 C 224.000 83.864,223.640 84.000,223.200 84.000 C 222.760 84.000,222.400 84.180,222.400 84.400 C 222.400 84.620,222.040 84.800,221.600 84.800 C 221.160 84.800,220.800 84.980,220.800 85.200 C 220.800 85.420,220.440 85.600,220.000 85.600 C 219.560 85.600,219.200 85.780,219.200 86.000 C 219.200 86.220,218.840 86.400,218.400 86.400 C 217.960 86.400,217.600 86.580,217.600 86.800 C 217.600 87.020,217.240 87.200,216.800 87.200 C 216.360 87.200,216.000 87.380,216.000 87.600 C 216.000 87.820,215.640 88.000,215.200 88.000 C 214.760 88.000,214.400 88.180,214.400 88.400 C 214.400 88.620,214.040 88.800,213.600 88.800 C 213.160 88.800,212.800 88.980,212.800 89.200 C 212.800 89.420,212.440 89.600,212.000 89.600 C 211.560 89.600,211.200 89.780,211.200 90.000 C 211.200 90.220,210.840 90.400,210.400 90.400 C 209.960 90.400,209.600 90.536,209.600 90.702 C 209.600 90.869,209.015 91.251,208.300 91.552 C 207.585 91.853,206.477 92.347,205.839 92.650 C 205.200 92.952,204.435 93.200,204.139 93.200 C 203.842 93.200,203.600 93.380,203.600 93.600 C 203.600 93.820,203.240 94.000,202.800 94.000 C 202.360 94.000,202.000 94.180,202.000 94.400 C 202.000 94.620,201.640 94.800,201.200 94.800 C 200.760 94.800,200.400 94.980,200.400 95.200 C 200.400 95.420,200.040 95.600,199.600 95.600 C 199.160 95.600,198.800 95.780,198.800 96.000 C 198.800 96.220,198.440 96.400,198.000 96.400 C 197.560 96.400,197.199 96.535,197.199 96.700 C 197.198 96.865,196.208 97.450,195.000 98.000 C 193.792 98.550,192.802 99.135,192.801 99.300 C 192.801 99.465,192.440 99.600,192.000 99.600 C 191.560 99.600,191.200 99.780,191.200 100.000 C 191.200 100.220,190.840 100.400,190.400 100.400 C 189.960 100.400,189.600 100.580,189.600 100.800 C 189.600 101.020,189.240 101.200,188.800 101.200 C 188.360 101.200,188.000 101.380,188.000 101.600 C 188.000 101.820,187.640 102.000,187.200 102.000 C 186.760 102.000,186.400 102.180,186.400 102.400 C 186.400 102.620,186.040 102.800,185.600 102.800 C 185.160 102.800,184.800 102.980,184.800 103.200 C 184.800 103.420,184.440 103.600,184.000 103.600 C 183.560 103.600,183.199 103.735,183.199 103.900 C 183.198 104.065,182.208 104.650,181.000 105.200 C 179.792 105.750,178.802 106.335,178.801 106.500 C 178.801 106.665,178.440 106.800,178.000 106.800 C 177.560 106.800,177.200 106.938,177.200 107.106 C 177.200 107.427,174.280 108.800,173.597 108.800 C 173.379 108.800,173.200 108.980,173.200 109.200 C 173.200 109.420,172.840 109.600,172.400 109.600 C 171.960 109.600,171.600 109.780,171.600 110.000 C 171.600 110.220,171.240 110.400,170.800 110.400 C 170.360 110.400,170.000 110.580,170.000 110.800 C 170.000 111.020,169.640 111.200,169.200 111.200 C 168.760 111.200,168.400 111.380,168.400 111.600 C 168.400 111.820,168.040 112.000,167.600 112.000 C 167.160 112.000,166.800 112.180,166.800 112.400 C 166.800 112.620,166.440 112.800,166.000 112.800 C 165.560 112.800,165.200 112.980,165.200 113.200 C 165.200 113.420,164.840 113.600,164.400 113.600 C 163.960 113.600,163.600 113.780,163.600 114.000 C 163.600 114.220,163.240 114.400,162.800 114.400 C 162.360 114.400,162.000 114.580,162.000 114.800 C 162.000 115.020,161.640 115.200,161.200 115.200 C 160.760 115.200,160.400 115.346,160.400 115.525 C 160.400 115.704,159.770 116.098,159.000 116.400 C 158.230 116.702,157.600 117.096,157.600 117.275 C 157.600 117.454,157.240 117.600,156.800 117.600 C 156.360 117.600,156.000 117.780,156.000 118.000 C 156.000 118.220,155.640 118.400,155.200 118.400 C 154.760 118.400,154.400 118.580,154.400 118.800 C 154.400 119.020,154.040 119.200,153.600 119.200 C 153.160 119.200,152.800 119.380,152.800 119.600 C 152.800 119.820,152.440 120.000,152.000 120.000 C 151.560 120.000,151.200 120.180,151.200 120.400 C 151.200 120.620,150.840 120.800,150.400 120.800 C 149.960 120.800,149.600 120.980,149.600 121.200 C 149.600 121.420,149.240 121.600,148.800 121.600 C 148.360 121.600,148.000 121.780,148.000 122.000 C 148.000 122.220,147.640 122.400,147.200 122.400 C 146.760 122.400,146.400 122.580,146.400 122.800 C 146.400 123.020,146.040 123.200,145.600 123.200 C 145.160 123.200,144.800 123.336,144.800 123.502 C 144.800 123.669,144.215 124.056,143.500 124.362 C 140.248 125.757,125.578 133.187,125.200 133.630 C 125.090 133.759,124.415 134.119,123.700 134.430 C 122.985 134.741,122.400 135.131,122.400 135.298 C 122.400 135.464,122.040 135.600,121.600 135.600 C 121.160 135.600,120.800 135.780,120.800 136.000 C 120.800 136.220,120.440 136.400,120.000 136.400 C 119.560 136.400,119.200 136.580,119.200 136.800 C 119.200 137.020,118.840 137.200,118.400 137.200 C 117.960 137.200,117.600 137.380,117.600 137.600 C 117.600 137.820,117.240 138.000,116.800 138.000 C 116.360 138.000,116.000 138.180,116.000 138.400 C 116.000 138.620,115.640 138.800,115.200 138.800 C 114.760 138.800,114.400 138.980,114.400 139.200 C 114.400 139.420,114.040 139.600,113.600 139.600 C 113.160 139.600,112.800 139.780,112.800 140.000 C 112.800 140.220,112.440 140.400,112.000 140.400 C 111.560 140.400,111.200 140.580,111.200 140.800 C 111.200 141.020,110.840 141.200,110.400 141.200 C 109.960 141.200,109.600 141.372,109.600 141.582 C 109.600 141.792,108.970 142.082,108.200 142.226 C 107.430 142.371,106.800 142.649,106.800 142.845 C 106.800 143.040,106.440 143.200,106.000 143.200 C 105.560 143.200,105.200 143.380,105.200 143.600 C 105.200 143.820,104.840 144.000,104.400 144.000 C 103.960 144.000,103.600 144.180,103.600 144.400 C 103.600 144.620,103.240 144.800,102.800 144.800 C 102.360 144.800,102.000 144.980,102.000 145.200 C 102.000 145.420,101.640 145.600,101.200 145.600 C 100.760 145.600,100.400 145.780,100.400 146.000 C 100.400 146.220,100.040 146.400,99.600 146.400 C 99.160 146.400,98.800 146.580,98.800 146.800 C 98.800 147.020,98.440 147.200,98.000 147.200 C 97.560 147.200,97.200 147.380,97.200 147.600 C 97.200 147.820,96.840 148.000,96.400 148.000 C 95.960 148.000,95.600 148.146,95.600 148.325 C 95.600 148.504,94.970 148.898,94.200 149.200 C 93.430 149.502,92.800 149.896,92.800 150.075 C 92.800 150.254,92.440 150.400,92.000 150.400 C 91.560 150.400,91.200 150.580,91.200 150.800 C 91.200 151.020,90.840 151.200,90.400 151.200 C 89.960 151.200,89.600 151.380,89.600 151.600 C 89.600 151.820,89.240 152.000,88.800 152.000 C 88.360 152.000,88.000 152.180,88.000 152.400 C 88.000 152.620,87.640 152.800,87.200 152.800 C 86.760 152.800,86.400 152.980,86.400 153.200 C 86.400 153.420,86.040 153.600,85.600 153.600 C 85.160 153.600,84.800 153.780,84.800 154.000 C 84.800 154.220,84.440 154.400,84.000 154.400 C 83.560 154.400,83.199 154.535,83.199 154.700 C 83.198 154.865,82.208 155.450,81.000 156.000 C 79.792 156.550,78.802 157.135,78.801 157.300 C 78.801 157.465,78.440 157.600,78.000 157.600 C 77.560 157.600,77.200 157.780,77.200 158.000 C 77.200 158.220,76.929 158.400,76.597 158.400 C 75.906 158.400,71.868 160.448,71.667 160.900 C 71.593 161.065,71.188 161.200,70.767 161.200 C 70.345 161.200,70.000 161.380,70.000 161.600 C 70.000 161.820,69.640 162.000,69.200 162.000 C 68.760 162.000,68.400 162.180,68.400 162.400 C 68.400 162.620,68.040 162.800,67.600 162.800 C 67.160 162.800,66.800 162.980,66.800 163.200 C 66.800 163.420,66.440 163.600,66.000 163.600 C 65.560 163.600,65.200 163.780,65.200 164.000 C 65.200 164.220,64.840 164.400,64.400 164.400 C 63.960 164.400,63.600 164.580,63.600 164.800 C 63.600 165.020,63.240 165.200,62.800 165.200 C 62.360 165.200,62.000 165.380,62.000 165.600 C 62.000 165.820,61.640 166.000,61.200 166.000 C 60.760 166.000,60.400 166.146,60.400 166.325 C 60.400 166.504,59.770 166.898,59.000 167.200 C 58.230 167.502,57.600 167.896,57.600 168.075 C 57.600 168.254,57.240 168.400,56.800 168.400 C 56.360 168.400,56.000 168.580,56.000 168.800 C 56.000 169.020,55.640 169.200,55.200 169.200 C 54.760 169.200,54.400 169.380,54.400 169.600 C 54.400 169.820,54.040 170.000,53.600 170.000 C 53.160 170.000,52.800 170.180,52.800 170.400 C 52.800 170.620,52.440 170.800,52.000 170.800 C 51.560 170.800,51.200 170.980,51.200 171.200 C 51.200 171.420,50.840 171.600,50.400 171.600 C 49.960 171.600,49.600 171.780,49.600 172.000 C 49.600 172.220,49.240 172.400,48.800 172.400 C 48.360 172.400,48.000 172.580,48.000 172.800 C 48.000 173.020,47.640 173.200,47.200 173.200 C 46.760 173.200,46.400 173.380,46.400 173.600 C 46.400 173.820,46.040 174.000,45.600 174.000 C 45.160 174.000,44.800 174.180,44.800 174.400 C 44.800 174.620,44.579 174.800,44.310 174.800 C 43.669 174.800,29.841 181.684,29.667 182.090 C 29.593 182.260,29.203 182.400,28.800 182.400 C 28.397 182.400,28.007 182.535,27.933 182.700 C 27.860 182.865,27.035 183.405,26.100 183.900 C 25.165 184.395,23.635 185.205,22.700 185.700 C 21.765 186.195,20.940 186.735,20.867 186.900 C 20.793 187.065,20.388 187.200,19.967 187.200 C 19.545 187.200,19.200 187.380,19.200 187.600 C 19.200 187.820,18.840 188.000,18.400 188.000 C 17.960 188.000,17.600 188.180,17.600 188.400 C 17.600 188.620,17.240 188.800,16.800 188.800 C 16.360 188.800,16.000 188.980,16.000 189.200 C 16.000 189.420,15.640 189.600,15.200 189.600 C 14.760 189.600,14.400 189.780,14.400 190.000 C 14.400 190.220,14.040 190.400,13.600 190.400 C 13.160 190.400,12.800 190.580,12.800 190.800 C 12.800 191.020,12.440 191.200,12.000 191.200 C 11.560 191.200,11.200 191.360,11.200 191.555 C 11.200 191.751,10.570 192.029,9.800 192.174 C 9.030 192.318,8.400 192.608,8.400 192.818 C 8.400 193.028,8.040 193.200,7.600 193.200 C 7.160 193.200,6.800 193.380,6.800 193.600 C 6.800 193.820,6.440 194.000,6.000 194.000 C 5.560 194.000,5.200 194.180,5.200 194.400 C 5.200 194.620,4.840 194.800,4.400 194.800 C 3.960 194.800,3.600 194.941,3.600 195.114 C 3.600 195.286,3.060 195.746,2.400 196.136 C 1.740 196.526,1.200 197.028,1.200 197.251 C 1.200 197.474,0.915 197.942,0.566 198.291 C 0.049 198.808,-0.043 199.704,0.066 203.177 L 0.200 207.429 1.687 208.914 C 2.504 209.731,3.449 210.400,3.787 210.400 C 4.124 210.400,4.400 210.580,4.400 210.800 C 4.400 211.020,4.940 211.200,5.600 211.200 C 6.260 211.200,6.800 211.380,6.800 211.600 C 6.800 211.820,7.239 212.000,7.776 212.000 C 8.313 212.000,8.864 212.180,9.000 212.400 C 9.136 212.620,9.687 212.800,10.224 212.800 C 10.761 212.800,11.200 212.980,11.200 213.200 C 11.200 213.420,11.639 213.600,12.176 213.600 C 12.713 213.600,13.264 213.780,13.400 214.000 C 13.536 214.220,14.076 214.400,14.600 214.400 C 15.124 214.400,15.664 214.580,15.800 214.800 C 15.936 215.020,16.399 215.200,16.829 215.200 C 17.259 215.200,17.968 215.380,18.405 215.600 C 18.842 215.820,19.558 216.180,19.995 216.400 C 20.432 216.620,21.141 216.800,21.571 216.800 C 22.001 216.800,22.464 216.980,22.600 217.200 C 22.736 217.420,23.287 217.600,23.824 217.600 C 24.361 217.600,24.800 217.780,24.800 218.000 C 24.800 218.220,25.340 218.400,26.000 218.400 C 26.660 218.400,27.200 218.580,27.200 218.800 C 27.200 219.020,27.639 219.200,28.176 219.200 C 28.713 219.200,29.264 219.380,29.400 219.600 C 29.536 219.820,30.076 220.000,30.600 220.000 C 31.124 220.000,31.664 220.180,31.800 220.400 C 31.936 220.620,32.476 220.800,33.000 220.800 C 33.524 220.800,34.064 220.980,34.200 221.200 C 34.336 221.420,34.887 221.600,35.424 221.600 C 35.961 221.600,36.400 221.780,36.400 222.000 C 36.400 222.220,36.940 222.400,37.600 222.400 C 38.260 222.400,38.800 222.580,38.800 222.800 C 38.800 223.020,39.310 223.200,39.933 223.200 C 40.557 223.200,41.193 223.326,41.347 223.480 C 41.772 223.905,46.077 225.187,47.100 225.194 C 47.595 225.197,48.000 225.380,48.000 225.600 C 48.000 225.820,48.540 226.000,49.200 226.000 C 49.860 226.000,50.400 226.180,50.400 226.400 C 50.400 226.620,50.940 226.800,51.600 226.800 C 52.260 226.800,52.800 226.980,52.800 227.200 C 52.800 227.420,53.340 227.600,54.000 227.600 C 54.660 227.600,55.200 227.780,55.200 228.000 C 55.200 228.220,55.740 228.400,56.400 228.400 C 57.060 228.400,57.600 228.580,57.600 228.800 C 57.600 229.020,58.050 229.200,58.600 229.200 C 59.150 229.200,59.600 229.380,59.600 229.600 C 59.600 229.820,60.039 230.000,60.576 230.000 C 61.113 230.000,61.664 230.180,61.800 230.400 C 61.936 230.620,62.399 230.800,62.829 230.800 C 63.259 230.800,63.968 230.980,64.405 231.200 C 64.842 231.420,65.558 231.780,65.995 232.000 C 66.432 232.220,67.141 232.400,67.571 232.400 C 68.001 232.400,68.464 232.580,68.600 232.800 C 68.736 233.020,69.287 233.200,69.824 233.200 C 70.361 233.200,70.800 233.380,70.800 233.600 C 70.800 233.820,71.340 234.000,72.000 234.000 C 72.660 234.000,73.200 234.180,73.200 234.400 C 73.200 234.620,73.740 234.800,74.400 234.800 C 75.060 234.800,75.600 234.980,75.600 235.200 C 75.600 235.420,76.039 235.600,76.576 235.600 C 77.113 235.600,77.664 235.780,77.800 236.000 C 77.936 236.220,78.476 236.400,79.000 236.400 C 79.524 236.400,80.064 236.580,80.200 236.800 C 80.336 237.020,80.876 237.200,81.400 237.200 C 81.924 237.200,82.464 237.380,82.600 237.600 C 82.736 237.820,83.287 238.000,83.824 238.000 C 84.361 238.000,84.800 238.180,84.800 238.400 C 84.800 238.620,85.340 238.800,86.000 238.800 C 86.660 238.800,87.200 238.980,87.200 239.200 C 87.200 239.420,87.729 239.600,88.376 239.600 C 89.023 239.600,89.664 239.780,89.800 240.000 C 89.936 240.220,90.476 240.400,91.000 240.400 C 91.524 240.400,92.061 240.575,92.193 240.788 C 92.325 241.002,93.325 241.295,94.416 241.440 C 95.507 241.585,96.400 241.860,96.400 242.052 C 96.400 242.243,96.940 242.400,97.600 242.400 C 98.260 242.400,98.800 242.580,98.800 242.800 C 98.800 243.020,99.340 243.200,100.000 243.200 C 100.660 243.200,101.200 243.380,101.200 243.600 C 101.200 243.820,101.740 244.000,102.400 244.000 C 103.060 244.000,103.600 244.180,103.600 244.400 C 103.600 244.620,104.140 244.800,104.800 244.800 C 105.460 244.800,106.000 244.980,106.000 245.200 C 106.000 245.420,106.362 245.600,106.805 245.600 C 107.248 245.600,107.968 245.780,108.405 246.000 C 108.842 246.220,109.558 246.580,109.995 246.800 C 110.432 247.020,111.152 247.200,111.595 247.200 C 112.038 247.200,112.400 247.380,112.400 247.600 C 112.400 247.820,112.839 248.000,113.376 248.000 C 113.913 248.000,114.464 248.180,114.600 248.400 C 114.736 248.620,115.276 248.800,115.800 248.800 C 116.324 248.800,116.864 248.980,117.000 249.200 C 117.136 249.420,117.687 249.600,118.224 249.600 C 118.761 249.600,119.200 249.780,119.200 250.000 C 119.200 250.220,119.740 250.400,120.400 250.400 C 121.060 250.400,121.600 250.580,121.600 250.800 C 121.600 251.020,122.140 251.200,122.800 251.200 C 123.460 251.200,124.000 251.380,124.000 251.600 C 124.000 251.820,124.540 252.000,125.200 252.000 C 125.860 252.000,126.400 252.180,126.400 252.400 C 126.400 252.620,126.839 252.800,127.376 252.800 C 127.913 252.800,128.464 252.980,128.600 253.200 C 128.736 253.420,129.276 253.600,129.800 253.600 C 130.324 253.600,130.864 253.780,131.000 254.000 C 131.136 254.220,131.687 254.400,132.224 254.400 C 132.761 254.400,133.200 254.580,133.200 254.800 C 133.200 255.020,133.740 255.200,134.400 255.200 C 135.060 255.200,135.600 255.380,135.600 255.600 C 135.600 255.820,136.140 256.000,136.800 256.000 C 137.460 256.000,138.000 256.180,138.000 256.400 C 138.000 256.620,138.452 256.800,139.005 256.800 C 139.558 256.800,140.323 256.967,140.705 257.171 C 141.777 257.744,145.453 258.800,146.375 258.800 L 147.200 258.800 147.200 304.376 C 147.200 334.329,147.337 350.038,147.600 350.200 C 147.820 350.336,148.000 351.157,148.000 352.024 C 148.000 352.891,148.180 353.600,148.400 353.600 C 148.620 353.600,148.800 353.891,148.800 354.246 C 148.800 355.694,151.984 357.920,154.467 358.208 C 160.269 358.881,160.238 358.906,185.694 333.323 C 188.935 330.065,192.085 326.903,192.694 326.296 C 197.622 321.377,208.128 310.891,209.512 309.509 C 228.227 290.820,232.400 286.972,232.400 288.400 C 232.400 288.620,232.940 288.800,233.600 288.800 C 234.260 288.800,234.800 288.980,234.800 289.200 C 234.800 289.420,235.340 289.600,236.000 289.600 C 236.660 289.600,237.200 289.780,237.200 290.000 C 237.200 290.220,237.729 290.400,238.376 290.400 C 239.023 290.400,239.654 290.563,239.777 290.763 C 239.900 290.962,240.901 291.249,242.000 291.400 C 243.100 291.551,244.000 291.838,244.000 292.038 C 244.000 292.237,244.540 292.400,245.200 292.400 C 245.860 292.400,246.400 292.580,246.400 292.800 C 246.400 293.020,246.839 293.200,247.376 293.200 C 247.913 293.200,248.464 293.380,248.600 293.600 C 248.736 293.820,249.287 294.000,249.824 294.000 C 250.361 294.000,250.800 294.180,250.800 294.400 C 250.800 294.620,251.239 294.800,251.776 294.800 C 252.313 294.800,252.864 294.980,253.000 295.200 C 253.136 295.420,253.687 295.600,254.224 295.600 C 254.761 295.600,255.200 295.780,255.200 296.000 C 255.200 296.220,255.740 296.400,256.400 296.400 C 257.060 296.400,257.600 296.580,257.600 296.800 C 257.600 297.020,258.140 297.200,258.800 297.200 C 259.460 297.200,260.000 297.380,260.000 297.600 C 260.000 297.820,260.439 298.000,260.976 298.000 C 261.513 298.000,262.064 298.180,262.200 298.400 C 262.336 298.620,262.887 298.800,263.424 298.800 C 263.961 298.800,264.400 298.980,264.400 299.200 C 264.400 299.420,264.940 299.600,265.600 299.600 C 266.260 299.600,266.800 299.780,266.800 300.000 C 266.800 300.220,267.340 300.400,268.000 300.400 C 268.660 300.400,269.200 300.580,269.200 300.800 C 269.200 301.020,269.740 301.200,270.400 301.200 C 271.060 301.200,271.600 301.380,271.600 301.600 C 271.600 301.820,272.140 302.000,272.800 302.000 C 273.460 302.000,274.000 302.180,274.000 302.400 C 274.000 302.620,274.439 302.800,274.976 302.800 C 275.513 302.800,276.064 302.980,276.200 303.200 C 276.336 303.420,276.876 303.600,277.400 303.600 C 277.924 303.600,278.464 303.780,278.600 304.000 C 278.736 304.220,279.287 304.400,279.824 304.400 C 280.361 304.400,280.800 304.580,280.800 304.800 C 280.800 305.020,281.340 305.200,282.000 305.200 C 282.660 305.200,283.200 305.380,283.200 305.600 C 283.200 305.820,283.740 306.000,284.400 306.000 C 285.060 306.000,285.600 306.180,285.600 306.400 C 285.600 306.620,286.052 306.800,286.605 306.800 C 287.158 306.800,287.923 306.958,288.305 307.150 C 288.687 307.343,290.080 307.811,291.400 308.190 C 292.720 308.569,294.113 309.042,294.495 309.240 C 294.877 309.438,295.552 309.600,295.995 309.600 C 296.438 309.600,296.800 309.780,296.800 310.000 C 296.800 310.220,297.239 310.400,297.776 310.400 C 298.313 310.400,298.864 310.580,299.000 310.800 C 299.136 311.020,299.676 311.200,300.200 311.200 C 300.724 311.200,301.264 311.380,301.400 311.600 C 301.536 311.820,302.087 312.000,302.624 312.000 C 303.161 312.000,303.600 312.180,303.600 312.400 C 303.600 312.620,304.140 312.800,304.800 312.800 C 305.460 312.800,306.000 312.980,306.000 313.200 C 306.000 313.420,306.540 313.600,307.200 313.600 C 307.860 313.600,308.400 313.780,308.400 314.000 C 308.400 314.220,308.839 314.400,309.376 314.400 C 309.913 314.400,310.464 314.580,310.600 314.800 C 310.736 315.020,311.287 315.200,311.824 315.200 C 312.361 315.200,312.800 315.380,312.800 315.600 C 312.800 315.820,313.340 316.000,314.000 316.000 C 314.660 316.000,315.200 316.180,315.200 316.400 C 315.200 316.620,315.740 316.800,316.400 316.800 C 317.060 316.800,317.600 316.980,317.600 317.200 C 317.600 317.420,318.140 317.600,318.800 317.600 C 319.460 317.600,320.000 317.780,320.000 318.000 C 320.000 318.220,320.540 318.400,321.200 318.400 C 321.860 318.400,322.400 318.580,322.400 318.800 C 322.400 319.020,322.940 319.200,323.600 319.200 C 324.260 319.200,324.800 319.380,324.800 319.600 C 324.800 319.820,325.239 320.000,325.776 320.000 C 326.313 320.000,326.864 320.180,327.000 320.400 C 327.136 320.620,327.687 320.800,328.224 320.800 C 328.761 320.800,329.200 320.980,329.200 321.200 C 329.200 321.420,329.740 321.600,330.400 321.600 C 331.060 321.600,331.600 321.780,331.600 322.000 C 331.600 322.220,332.140 322.400,332.800 322.400 C 333.460 322.400,334.000 322.580,334.000 322.800 C 334.000 323.020,334.540 323.200,335.200 323.200 C 335.860 323.200,336.400 323.380,336.400 323.600 C 336.400 323.820,336.929 324.000,337.576 324.000 C 338.223 324.000,338.851 324.159,338.971 324.354 C 339.092 324.548,340.002 324.829,340.995 324.978 C 341.988 325.127,342.800 325.418,342.800 325.625 C 342.800 325.831,343.340 326.000,344.000 326.000 C 344.660 326.000,345.200 326.180,345.200 326.400 C 345.200 326.620,345.639 326.800,346.176 326.800 C 346.713 326.800,347.264 326.980,347.400 327.200 C 347.536 327.420,348.087 327.600,348.624 327.600 C 349.161 327.600,349.600 327.780,349.600 328.000 C 349.600 328.220,350.140 328.400,350.800 328.400 C 351.460 328.400,352.000 328.580,352.000 328.800 C 352.000 329.020,352.540 329.200,353.200 329.200 C 353.860 329.200,354.400 329.380,354.400 329.600 C 354.400 329.820,354.940 330.000,355.600 330.000 C 356.260 330.000,356.800 330.180,356.800 330.400 C 356.800 330.620,357.340 330.800,358.000 330.800 C 358.660 330.800,359.200 330.980,359.200 331.200 C 359.200 331.420,359.639 331.600,360.176 331.600 C 360.713 331.600,361.264 331.780,361.400 332.000 C 361.536 332.220,362.087 332.400,362.624 332.400 C 363.161 332.400,363.600 332.580,363.600 332.800 C 363.600 333.020,364.140 333.200,364.800 333.200 C 365.460 333.200,366.000 333.380,366.000 333.600 C 366.000 333.820,366.540 334.000,367.200 334.000 C 367.860 334.000,368.400 334.180,368.400 334.400 C 368.400 334.620,368.940 334.800,369.600 334.800 C 370.260 334.800,370.800 334.980,370.800 335.200 C 370.800 335.420,371.340 335.600,372.000 335.600 C 372.660 335.600,373.200 335.780,373.200 336.000 C 373.200 336.220,373.740 336.400,374.400 336.400 C 375.060 336.400,375.600 336.580,375.600 336.800 C 375.600 337.020,376.039 337.200,376.576 337.200 C 377.113 337.200,377.664 337.380,377.800 337.600 C 377.936 337.820,378.487 338.000,379.024 338.000 C 379.561 338.000,380.000 338.180,380.000 338.400 C 380.000 338.620,380.540 338.800,381.200 338.800 C 381.860 338.800,382.400 338.980,382.400 339.200 C 382.400 339.420,382.940 339.600,383.600 339.600 C 384.260 339.600,384.800 339.780,384.800 340.000 C 384.800 340.220,385.304 340.400,385.920 340.400 C 386.536 340.400,387.265 340.625,387.540 340.900 C 388.152 341.513,395.886 341.600,396.314 340.999 C 396.471 340.779,397.087 340.348,397.682 340.041 C 400.198 338.745,400.000 353.263,400.000 170.256 L 400.000 3.634 398.368 1.917 L 396.736 0.200 392.468 0.130 C 390.121 0.091,387.840 0.157,387.400 0.276 M363.994 31.500 C 363.991 31.665,345.173 50.610,322.178 73.600 C 299.182 96.590,251.634 144.245,216.516 179.500 C 181.398 214.755,152.427 243.600,152.135 243.600 C 151.567 243.600,136.332 238.621,135.000 238.000 C 134.560 237.795,130.690 236.461,126.400 235.037 C 106.402 228.395,89.737 222.744,89.105 222.390 C 88.723 222.175,88.136 222.000,87.800 222.000 C 87.464 222.000,86.877 221.823,86.495 221.606 C 86.113 221.389,82.290 220.049,78.000 218.629 C 63.464 213.816,41.404 206.366,40.600 205.999 C 40.160 205.798,37.460 204.873,34.600 203.943 C 29.985 202.444,27.884 201.475,28.424 201.095 C 28.521 201.027,29.770 200.379,31.200 199.655 C 32.630 198.931,40.190 195.089,48.000 191.118 C 66.937 181.488,85.190 172.226,104.600 162.398 C 125.899 151.614,142.286 143.287,153.000 137.804 C 161.337 133.537,173.216 127.507,206.200 110.797 C 233.922 96.753,249.901 88.649,262.200 82.396 C 269.020 78.929,280.090 73.303,286.800 69.894 C 293.510 66.486,303.410 61.452,308.800 58.707 C 314.190 55.963,327.510 49.204,338.400 43.688 C 349.290 38.171,359.190 33.120,360.400 32.463 C 362.557 31.293,364.006 30.905,363.994 31.500 M384.400 178.024 C 384.400 257.431,384.320 322.400,384.222 322.400 C 384.125 322.400,381.380 321.509,378.122 320.419 C 365.061 316.050,358.320 313.680,357.976 313.336 C 357.766 313.126,357.569 295.133,357.507 270.521 L 357.400 228.069 356.200 226.370 C 353.039 221.896,346.961 221.896,343.800 226.370 L 342.600 228.069 342.492 267.722 C 342.433 289.531,342.234 307.526,342.050 307.710 C 341.721 308.039,336.862 306.467,310.800 297.598 C 303.650 295.164,292.940 291.552,287.000 289.569 C 281.060 287.587,275.840 285.800,275.400 285.600 C 274.603 285.237,253.901 278.245,236.800 272.564 C 231.850 270.919,227.440 269.407,227.000 269.205 C 226.209 268.839,205.804 261.946,188.400 256.164 C 183.450 254.519,179.040 253.006,178.600 252.802 C 178.160 252.598,175.910 251.810,173.600 251.051 C 170.545 250.048,169.400 249.493,169.400 249.018 C 169.400 248.659,210.903 206.748,261.628 155.883 C 312.353 105.017,360.593 56.626,368.828 48.346 C 377.063 40.066,383.935 33.371,384.100 33.469 C 384.265 33.567,384.400 98.617,384.400 178.024 M347.619 192.922 C 344.110 194.041,341.822 198.307,342.820 201.872 C 344.379 207.440,351.142 209.258,355.200 205.200 C 360.714 199.686,355.070 190.546,347.619 192.922 M185.800 271.449 C 193.280 273.979,202.640 277.129,206.600 278.449 C 210.560 279.769,213.953 280.999,214.139 281.184 C 214.541 281.580,165.076 330.800,164.275 330.800 C 163.954 330.800,163.895 264.638,164.216 264.317 C 164.335 264.198,166.180 264.719,168.316 265.475 C 170.452 266.231,178.320 268.919,185.800 271.449 M101.400 288.400 C 101.264 288.620,100.663 288.800,100.065 288.800 C 99.435 288.800,98.733 289.137,98.400 289.600 C 98.083 290.040,97.638 290.403,97.412 290.408 C 96.889 290.417,39.600 347.728,39.600 348.242 C 39.600 348.452,39.240 348.883,38.800 349.200 C 38.360 349.517,38.000 350.097,38.000 350.488 C 38.000 350.880,37.820 351.200,37.600 351.200 C 37.365 351.200,37.200 352.600,37.200 354.600 C 37.200 356.600,37.365 358.000,37.600 358.000 C 37.820 358.000,38.000 358.276,38.000 358.613 C 38.000 359.409,40.591 362.000,41.387 362.000 C 41.724 362.000,42.000 362.180,42.000 362.400 C 42.000 362.635,43.400 362.800,45.400 362.800 C 47.400 362.800,48.800 362.635,48.800 362.400 C 48.800 362.180,49.120 362.000,49.512 362.000 C 49.903 362.000,50.483 361.640,50.800 361.200 C 51.117 360.760,51.548 360.400,51.758 360.400 C 52.272 360.400,109.583 303.111,109.592 302.588 C 109.597 302.362,109.960 301.917,110.400 301.600 C 110.863 301.267,111.200 300.565,111.200 299.935 C 111.200 299.337,111.380 298.736,111.600 298.600 C 111.820 298.464,112.000 297.553,112.000 296.576 C 112.000 295.599,111.820 294.800,111.600 294.800 C 111.380 294.800,111.200 294.260,111.200 293.600 C 111.200 292.940,111.020 292.400,110.800 292.400 C 110.580 292.400,110.400 292.212,110.400 291.982 C 110.400 291.439,108.561 289.600,108.018 289.600 C 107.788 289.600,107.600 289.420,107.600 289.200 C 107.600 288.980,107.060 288.800,106.400 288.800 C 105.740 288.800,105.200 288.620,105.200 288.400 C 105.200 288.180,104.401 288.000,103.424 288.000 C 102.447 288.000,101.536 288.180,101.400 288.400 M262.200 327.200 C 262.064 327.420,261.605 327.600,261.179 327.600 C 260.032 327.600,260.453 327.194,230.024 357.626 C 196.119 391.534,199.600 387.578,199.600 392.200 C 199.600 395.665,199.888 396.398,202.074 398.500 L 203.634 400.000 207.730 400.000 C 212.892 400.000,208.888 403.470,242.379 369.978 C 272.776 339.581,272.400 339.971,272.400 338.821 C 272.400 338.395,272.580 337.936,272.800 337.800 C 273.020 337.664,273.200 336.674,273.200 335.600 C 273.200 334.526,273.020 333.536,272.800 333.400 C 272.580 333.264,272.400 332.728,272.400 332.208 C 272.400 331.619,271.710 330.573,270.568 329.432 C 269.427 328.290,268.381 327.600,267.792 327.600 C 267.272 327.600,266.736 327.420,266.600 327.200 C 266.464 326.980,265.474 326.800,264.400 326.800 C 263.326 326.800,262.336 326.980,262.200 327.200 M24.000 365.600 C 24.000 365.820,23.545 366.000,22.989 366.000 C 21.611 366.000,18.400 369.211,18.400 370.589 C 18.400 371.145,18.220 371.600,18.000 371.600 C 17.780 371.600,17.600 372.590,17.600 373.800 C 17.600 375.010,17.780 376.000,18.000 376.000 C 18.220 376.000,18.400 376.455,18.400 377.011 C 18.400 378.389,21.611 381.600,22.989 381.600 C 23.545 381.600,24.000 381.780,24.000 382.000 C 24.000 382.220,24.990 382.400,26.200 382.400 C 27.410 382.400,28.400 382.220,28.400 382.000 C 28.400 381.780,28.855 381.600,29.411 381.600 C 30.789 381.600,34.000 378.389,34.000 377.011 C 34.000 376.455,34.180 376.000,34.400 376.000 C 34.620 376.000,34.800 375.010,34.800 373.800 C 34.800 372.590,34.620 371.600,34.400 371.600 C 34.180 371.600,34.000 371.145,34.000 370.589 C 34.000 369.211,30.789 366.000,29.411 366.000 C 28.855 366.000,28.400 365.820,28.400 365.600 C 28.400 365.380,27.410 365.200,26.200 365.200 C 24.990 365.200,24.000 365.380,24.000 365.600 " class="color040404 svgShape"></path><path fill="#6773b0" fill-rule="evenodd" d="M357.193 37.500 L 353.000 41.800 357.300 37.607 C 359.665 35.301,361.600 33.366,361.600 33.307 C 361.600 33.018,361.087 33.506,357.193 37.500 M246.987 148.100 L 244.600 150.600 247.100 148.213 C 248.475 146.899,249.600 145.774,249.600 145.713 C 249.600 145.417,249.205 145.778,246.987 148.100 M230.585 164.500 L 228.600 166.600 230.700 164.615 C 232.651 162.771,232.983 162.400,232.685 162.400 C 232.622 162.400,231.677 163.345,230.585 164.500 M164.400 297.667 C 164.400 315.743,164.535 330.396,164.700 330.228 C 164.865 330.060,175.935 319.116,189.300 305.906 C 202.665 292.697,213.600 281.755,213.600 281.592 C 213.600 281.428,212.025 280.794,210.100 280.181 C 208.175 279.569,206.429 278.918,206.220 278.734 C 206.011 278.550,205.437 278.400,204.944 278.400 C 204.451 278.400,203.936 278.220,203.800 278.000 C 203.664 277.780,203.124 277.600,202.600 277.600 C 202.076 277.600,201.536 277.420,201.400 277.200 C 201.264 276.980,200.724 276.800,200.200 276.800 C 199.676 276.800,199.158 276.656,199.049 276.479 C 198.940 276.303,197.928 275.907,196.800 275.600 C 195.672 275.293,194.660 274.897,194.551 274.721 C 194.442 274.544,193.924 274.400,193.400 274.400 C 192.876 274.400,192.336 274.220,192.200 274.000 C 192.064 273.780,191.524 273.600,191.000 273.600 C 190.476 273.600,189.936 273.420,189.800 273.200 C 189.664 272.980,189.124 272.800,188.600 272.800 C 188.076 272.800,187.536 272.620,187.400 272.400 C 187.264 272.180,186.724 272.000,186.200 272.000 C 185.676 272.000,185.136 271.820,185.000 271.600 C 184.864 271.380,184.401 271.200,183.971 271.200 C 183.541 271.200,182.877 271.022,182.495 270.805 C 181.899 270.466,164.967 264.800,164.550 264.800 C 164.467 264.800,164.400 279.590,164.400 297.667 " class="colore55a32 svgShape"></path><path fill="#48538b" fill-rule="evenodd" d="M360.400 32.463 C 359.190 33.120,349.290 38.171,338.400 43.688 C 327.510 49.204,314.190 55.963,308.800 58.707 C 303.410 61.452,293.510 66.486,286.800 69.894 C 280.090 73.303,269.020 78.929,262.200 82.396 C 249.901 88.649,233.922 96.753,206.200 110.797 C 173.216 127.507,161.337 133.537,153.000 137.804 C 142.286 143.287,125.899 151.614,104.600 162.398 C 85.190 172.226,66.937 181.488,48.000 191.118 C 40.190 195.089,32.630 198.931,31.200 199.655 C 29.770 200.379,28.521 201.027,28.424 201.095 C 27.884 201.475,29.985 202.444,34.600 203.943 C 37.460 204.873,40.160 205.798,40.600 205.999 C 41.404 206.366,63.464 213.816,78.000 218.629 C 82.290 220.049,86.113 221.389,86.495 221.606 C 86.877 221.823,87.464 222.000,87.800 222.000 C 88.136 222.000,88.723 222.175,89.105 222.390 C 89.737 222.744,106.402 228.395,126.400 235.037 C 130.690 236.461,134.560 237.795,135.000 238.000 C 136.338 238.624,151.569 243.600,152.140 243.600 C 152.434 243.600,172.064 224.115,195.762 200.300 C 219.461 176.485,266.685 129.151,300.704 95.113 C 334.724 61.075,362.469 33.136,362.360 33.027 C 362.151 32.818,337.154 57.794,222.337 172.935 L 152.200 243.270 147.800 241.827 C 145.380 241.034,143.087 240.208,142.705 239.992 C 142.323 239.777,141.659 239.600,141.229 239.600 C 140.799 239.600,140.336 239.420,140.200 239.200 C 140.064 238.980,139.601 238.800,139.171 238.800 C 138.741 238.800,138.077 238.622,137.695 238.404 C 137.313 238.187,131.240 236.112,124.200 233.795 C 117.160 231.477,111.087 229.405,110.705 229.190 C 110.323 228.976,109.736 228.800,109.400 228.800 C 109.064 228.800,108.477 228.624,108.095 228.410 C 107.713 228.195,104.610 227.111,101.200 226.000 C 97.790 224.889,94.687 223.805,94.305 223.590 C 93.923 223.376,93.259 223.200,92.829 223.200 C 92.399 223.200,91.936 223.020,91.800 222.800 C 91.664 222.580,91.201 222.400,90.771 222.400 C 90.341 222.400,89.677 222.222,89.295 222.004 C 88.913 221.787,82.840 219.712,75.800 217.395 C 68.760 215.077,62.687 213.005,62.305 212.790 C 61.923 212.576,61.336 212.400,61.000 212.400 C 60.664 212.400,60.077 212.225,59.695 212.011 C 59.313 211.798,56.750 210.893,54.000 210.000 C 51.250 209.107,48.687 208.202,48.305 207.989 C 47.923 207.775,47.259 207.600,46.829 207.600 C 46.399 207.600,45.936 207.420,45.800 207.200 C 45.664 206.980,45.124 206.800,44.600 206.800 C 44.076 206.800,43.536 206.620,43.400 206.400 C 43.264 206.180,42.743 206.000,42.243 206.000 C 41.743 206.000,41.208 205.875,41.055 205.721 C 40.901 205.568,38.296 204.623,35.264 203.621 C 32.233 202.620,29.703 201.633,29.641 201.429 C 29.579 201.226,35.170 198.198,42.064 194.701 C 48.959 191.204,61.170 185.002,69.200 180.917 C 77.230 176.833,89.740 170.482,97.000 166.804 C 104.260 163.127,115.420 157.463,121.800 154.218 C 128.180 150.973,140.420 144.755,149.000 140.401 C 157.580 136.046,170.000 129.743,176.600 126.394 C 198.102 115.481,212.740 108.055,227.400 100.622 C 235.320 96.606,246.390 90.978,252.000 88.115 C 257.610 85.253,269.580 79.174,278.600 74.607 C 314.323 56.519,326.017 50.580,353.568 36.531 C 358.060 34.240,361.988 32.463,362.297 32.582 C 362.606 32.701,363.116 32.541,363.430 32.227 C 364.886 30.771,363.290 30.895,360.400 32.463 M368.828 48.346 C 360.593 56.626,312.353 105.017,261.628 155.883 C 210.903 206.748,169.400 248.659,169.400 249.018 C 169.400 249.493,170.545 250.048,173.600 251.051 C 175.910 251.810,178.160 252.598,178.600 252.802 C 179.040 253.006,183.450 254.519,188.400 256.164 C 205.804 261.946,226.209 268.839,227.000 269.205 C 227.440 269.407,231.850 270.919,236.800 272.564 C 253.901 278.245,274.603 285.237,275.400 285.600 C 275.840 285.800,281.060 287.587,287.000 289.569 C 292.940 291.552,303.650 295.164,310.800 297.598 C 336.862 306.467,341.721 308.039,342.050 307.710 C 342.234 307.526,342.433 289.531,342.492 267.722 L 342.600 228.069 343.800 226.370 C 346.961 221.896,353.039 221.896,356.200 226.370 L 357.400 228.069 357.507 270.521 C 357.569 295.133,357.766 313.126,357.976 313.336 C 358.320 313.680,365.061 316.050,378.122 320.419 C 381.380 321.509,384.125 322.400,384.222 322.400 C 384.535 322.400,384.412 33.654,384.100 33.469 C 383.935 33.371,377.063 40.066,368.828 48.346 M383.802 321.531 C 383.693 321.640,379.778 320.429,375.102 318.838 C 370.426 317.248,364.665 315.300,362.300 314.509 L 358.000 313.071 358.000 270.748 C 358.000 228.489,357.999 228.422,357.159 226.912 C 353.793 220.856,346.207 220.856,342.841 226.912 C 342.002 228.420,342.000 228.533,342.000 268.055 C 342.000 305.635,341.964 307.672,341.300 307.415 C 340.193 306.988,318.881 299.780,311.600 297.371 C 307.970 296.170,304.687 295.010,304.305 294.794 C 303.923 294.577,303.259 294.400,302.829 294.400 C 302.399 294.400,301.936 294.220,301.800 294.000 C 301.664 293.780,301.124 293.600,300.600 293.600 C 300.076 293.600,299.536 293.420,299.400 293.200 C 299.264 292.980,298.724 292.800,298.200 292.800 C 297.676 292.800,297.136 292.620,297.000 292.400 C 296.864 292.180,296.401 292.000,295.971 292.000 C 295.541 292.000,294.877 291.825,294.495 291.611 C 293.848 291.248,278.494 286.028,263.200 280.970 C 259.570 279.770,256.287 278.610,255.905 278.394 C 255.523 278.177,254.859 278.000,254.429 278.000 C 253.999 278.000,253.536 277.820,253.400 277.600 C 253.264 277.380,252.724 277.200,252.200 277.200 C 251.676 277.200,251.136 277.020,251.000 276.800 C 250.864 276.580,250.324 276.400,249.800 276.400 C 249.276 276.400,248.736 276.220,248.600 276.000 C 248.464 275.780,248.001 275.600,247.571 275.600 C 247.141 275.600,246.477 275.425,246.095 275.211 C 245.713 274.998,243.150 274.089,240.400 273.192 C 237.650 272.296,235.040 271.401,234.600 271.204 C 234.160 271.007,228.040 268.942,221.000 266.616 C 213.960 264.290,207.887 262.210,207.505 261.993 C 207.123 261.777,206.459 261.600,206.029 261.600 C 205.599 261.600,205.136 261.420,205.000 261.200 C 204.864 260.980,204.324 260.800,203.800 260.800 C 203.276 260.800,202.736 260.620,202.600 260.400 C 202.464 260.180,202.001 260.000,201.571 260.000 C 201.141 260.000,200.477 259.824,200.095 259.610 C 199.713 259.395,196.610 258.307,193.200 257.192 C 189.790 256.077,186.640 254.999,186.200 254.796 C 185.760 254.593,182.110 253.347,178.088 252.027 C 174.066 250.706,170.534 249.485,170.238 249.313 C 169.643 248.967,189.504 228.893,311.400 106.634 L 383.800 34.019 383.901 177.676 C 383.956 256.687,383.912 321.422,383.802 321.531 M347.000 192.523 C 340.425 196.430,340.184 203.675,346.512 207.166 C 351.476 209.904,358.000 205.834,358.000 200.000 C 358.000 194.565,351.266 189.987,347.000 192.523 M352.144 192.890 C 355.867 194.006,358.212 198.187,357.180 201.872 C 355.621 207.440,348.858 209.258,344.800 205.200 C 339.351 199.751,344.764 190.679,352.144 192.890 M164.216 264.317 C 163.895 264.638,163.954 330.800,164.275 330.800 C 165.071 330.800,214.543 281.581,214.139 281.191 C 213.953 281.011,209.660 279.476,204.600 277.781 C 199.540 276.085,195.145 274.600,194.834 274.481 C 194.523 274.362,194.377 274.439,194.509 274.653 C 194.641 274.867,195.672 275.293,196.800 275.600 C 197.928 275.907,198.940 276.303,199.049 276.479 C 199.158 276.656,199.676 276.800,200.200 276.800 C 200.724 276.800,201.264 276.980,201.400 277.200 C 201.536 277.420,202.076 277.600,202.600 277.600 C 203.124 277.600,203.664 277.780,203.800 278.000 C 203.936 278.220,204.451 278.400,204.944 278.400 C 205.437 278.400,206.011 278.550,206.220 278.734 C 206.429 278.918,208.175 279.569,210.100 280.181 C 212.025 280.794,213.606 281.408,213.614 281.547 C 213.621 281.686,202.596 292.716,189.114 306.058 L 164.600 330.315 164.498 297.693 C 164.441 279.751,164.464 265.003,164.548 264.918 C 164.632 264.834,166.282 265.313,168.215 265.983 C 171.526 267.130,172.775 267.442,172.347 267.014 C 171.943 266.610,164.419 264.114,164.216 264.317 M173.200 267.600 C 173.530 267.813,174.070 267.988,174.400 267.988 C 174.933 267.988,174.933 267.945,174.400 267.600 C 174.070 267.387,173.530 267.212,173.200 267.212 C 172.667 267.212,172.667 267.255,173.200 267.600 M175.600 268.400 C 175.930 268.613,176.470 268.788,176.800 268.788 C 177.333 268.788,177.333 268.745,176.800 268.400 C 176.470 268.187,175.930 268.012,175.600 268.012 C 175.067 268.012,175.067 268.055,175.600 268.400 M178.000 269.200 C 178.330 269.413,178.870 269.588,179.200 269.588 C 179.733 269.588,179.733 269.545,179.200 269.200 C 178.870 268.987,178.330 268.812,178.000 268.812 C 177.467 268.812,177.467 268.855,178.000 269.200 M180.400 270.000 C 180.730 270.213,181.270 270.388,181.600 270.388 C 182.133 270.388,182.133 270.345,181.600 270.000 C 181.270 269.787,180.730 269.612,180.400 269.612 C 179.867 269.612,179.867 269.655,180.400 270.000 M182.600 270.800 C 182.736 271.020,183.242 271.197,183.724 271.194 C 184.436 271.189,184.488 271.115,184.000 270.800 C 183.212 270.291,182.285 270.291,182.600 270.800 M185.000 271.600 C 185.136 271.820,185.642 271.987,186.124 271.972 C 186.969 271.945,186.971 271.931,186.200 271.600 C 185.099 271.127,184.708 271.127,185.000 271.600 M187.400 272.400 C 187.536 272.620,188.042 272.787,188.524 272.772 C 189.369 272.745,189.371 272.731,188.600 272.400 C 187.499 271.927,187.108 271.927,187.400 272.400 M189.800 273.200 C 189.936 273.420,190.442 273.587,190.924 273.572 C 191.769 273.545,191.771 273.531,191.000 273.200 C 189.899 272.727,189.508 272.727,189.800 273.200 M192.200 274.000 C 192.336 274.220,192.842 274.387,193.324 274.372 C 194.169 274.345,194.171 274.331,193.400 274.000 C 192.299 273.527,191.908 273.527,192.200 274.000 " class="colora17332 svgShape"></path></svg></g></svg>